ffmpeg started on 2025-06-06 at 15:24:02
Report written to "D:\Convert\FFMetrics\reports\ssim_report-6.txt"
Log level: 32
Command line:
ffmpeg -hide_banner -nostdin -i "G:\\\xc0\xed\xe8\xec\xe5\\\xce\xed\xe3\xee\xe8\xed\xe3\xe8\\!_36_\xce\xf1\xe5\xed\xfc_2024\\DreamCast\\\xcd\xe8\xed\xe0 \xe2 \xea\xee\xf0\xee\xeb\xe5\xe2\xf1\xf2\xe2\xe5 \xe7\xe2\xb8\xe7\xe4\\[DC] Hoshi Furu Oukoku no Nina - 07_Telegram_HEVC.mkv" -i "G:\\\xc0\xed\xe8\xec\xe5\\\xce\xed\xe3\xee\xe8\xed\xe3\xe8\\!_36_\xce\xf1\xe5\xed\xfc_2024\\DreamCast\\\xcd\xe8\xed\xe0 \xe2 \xea\xee\xf0\xee\xeb\xe5\xe2\xf1\xf2\xe2\xe5 \xe7\xe2\xb8\xe7\xe4\\[DC] Hoshi Furu Oukoku no Nina - 07_Telegram.mp4" -lavfi "[0:v]settb=AVTB,setpts=PTS-STARTPTS,format=pix_fmts=yuv420p10,fps=24000/1001,scale=1920:1080:flags=bicubic[main];[1:v]settb=AVTB,setpts=PTS-STARTPTS,format=pix_fmts=yuv420p,fps=24000/1001,scale=1920:1080:flags=bicubic[ref];[main][ref]ssim=eof_action=endall:stats_file='D\\:/Convert/FFMetrics/logs/ssim_logfile-6.txt'" -f null -
Input #0, matroska,webm, from 'G:\Аниме\Онгоинги\!_36_Осень_2024\DreamCast\Нина в королевстве звёзд\[DC] Hoshi Furu Oukoku no Nina - 07_Telegram_HEVC.mkv':
  Metadata:
    COMPATIBLE_BRANDS: isomiso2avc1mp41
    MAJOR_BRAND     : isom
    MINOR_VERSION   : 512
    ENCODER         : Lavf61.7.100
  Duration: 00:23:46.65, start: -0.021000, bitrate: 776 kb/s
  Stream #0:0: Video: hevc (Main 10), yuv420p10le(tv, bt709, progressive), 1920x1080 [SAR 1:1 DAR 16:9], 23.98 fps, 23.98 tbr, 1k tbn (default)
      Metadata:
        HANDLER_NAME    : VideoHandler
        VENDOR_ID       : [0][0][0][0]
        ENCODER         : Lavc61.19.100 libx265
        BPS             : 578818
        DURATION        : 00:23:46.549708333
        NUMBER_OF_FRAMES: 34203
        NUMBER_OF_BYTES : 103214073
        _STATISTICS_WRITING_APP: mkvpropedit v66.0.0 ('Josie') 64-bit
        _STATISTICS_WRITING_DATE_UTC: 2025-06-01 12:54:01
        _STATISTICS_TAGS: BPS DURATION NUMBER_OF_FRAMES NUMBER_OF_BYTES
  Stream #0:1: Audio: aac (LC), 48000 Hz, stereo, fltp (default)
      Metadata:
        HANDLER_NAME    : SoundHandler
        VENDOR_ID       : [0][0][0][0]
        ENCODER         : Lavc61.19.100 aac
        BPS             : 193950
        DURATION        : 00:23:46.645000000
        NUMBER_OF_FRAMES: 66875
        NUMBER_OF_BYTES : 34587335
        _STATISTICS_WRITING_APP: mkvpropedit v66.0.0 ('Josie') 64-bit
        _STATISTICS_WRITING_DATE_UTC: 2025-06-01 12:54:01
        _STATISTICS_TAGS: BPS DURATION NUMBER_OF_FRAMES NUMBER_OF_BYTES
Input #1, mov,mp4,m4a,3gp,3g2,mj2, from 'G:\Аниме\Онгоинги\!_36_Осень_2024\DreamCast\Нина в королевстве звёзд\[DC] Hoshi Furu Oukoku no Nina - 07_Telegram.mp4':
  Metadata:
    major_brand     : isom
    minor_version   : 512
    compatible_brands: isomiso2avc1mp41
    encoder         : Lavf61.1.100
  Duration: 00:23:46.62, start: 0.000000, bitrate: 3836 kb/s
  Stream #1:0[0x1](und): Video: h264 (High) (avc1 / 0x31637661), yuv420p(tv, bt709, progressive), 1920x1080 [SAR 1:1 DAR 16:9], 3688 kb/s, 23.98 fps, 23.98 tbr, 24k tbn (default)
      Metadata:
        handler_name    : VideoHandler
        vendor_id       : [0][0][0][0]
        encoder         : Lavc61.3.100 h264_qsv
  Stream #1:1[0x2](und): Audio: aac (HE-AACv2) (mp4a / 0x6134706D), 48000 Hz, stereo, fltp, 144 kb/s (default)
      Metadata:
        handler_name    : SoundHandler
        vendor_id       : [0][0][0][0]
Stream mapping:
  Stream #0:0 (hevc) -> settb:default
  Stream #1:0 (h264) -> settb:default
  ssim:default -> Stream #0:0 (wrapped_avframe)
  Stream #0:1 -> #0:1 (aac (native) -> pcm_s16le (native))
Output #0, null, to 'pipe:':
  Metadata:
    COMPATIBLE_BRANDS: isomiso2avc1mp41
    MAJOR_BRAND     : isom
    MINOR_VERSION   : 512
    encoder         : Lavf61.7.100
  Stream #0:0: Video: wrapped_avframe, yuv420p10le(tv, bt709, progressive), 1920x1080 [SAR 1:1 DAR 16:9], q=2-31, 200 kb/s, 23.98 fps, 23.98 tbn
      Metadata:
        encoder         : Lavc61.19.100 wrapped_avframe
  Stream #0:1: Audio: pcm_s16le, 48000 Hz, stereo, s16, 1536 kb/s (default)
      Metadata:
        HANDLER_NAME    : SoundHandler
        VENDOR_ID       : [0][0][0][0]
        _STATISTICS_TAGS: BPS DURATION NUMBER_OF_FRAMES NUMBER_OF_BYTES
        BPS             : 193950
        DURATION        : 00:23:46.645000000
        NUMBER_OF_FRAMES: 66875
        NUMBER_OF_BYTES : 34587335
        _STATISTICS_WRITING_APP: mkvpropedit v66.0.0 ('Josie') 64-bit
        _STATISTICS_WRITING_DATE_UTC: 2025-06-01 12:54:01
        encoder         : Lavc61.19.100 pcm_s16le
frame=  176 fps=0.0 q=-0.0 size=N/A time=00:00:07.34 bitrate=N/A speed=  14x    frame=  403 fps=391 q=-0.0 size=N/A time=00:00:16.80 bitrate=N/A speed=16.3x    frame=  633 fps=407 q=-0.0 size=N/A time=00:00:26.40 bitrate=N/A speed=  17x    frame=  882 fps=428 q=-0.0 size=N/A time=00:00:36.78 bitrate=N/A speed=17.9x    frame= 1131 fps=437 q=-0.0 size=N/A time=00:00:47.17 bitrate=N/A speed=18.2x    frame= 1387 fps=448 q=-0.0 size=N/A time=00:00:57.84 bitrate=N/A speed=18.7x    frame= 1632 fps=452 q=-0.0 size=N/A time=00:01:08.06 bitrate=N/A speed=18.8x    frame= 1841 fps=446 q=-0.0 size=N/A time=00:01:16.78 bitrate=N/A speed=18.6x    frame= 2010 fps=433 q=-0.0 size=N/A time=00:01:23.83 bitrate=N/A speed=  18x    frame= 2205 fps=428 q=-0.0 size=N/A time=00:01:31.96 bitrate=N/A speed=17.8x    frame= 2395 fps=422 q=-0.0 size=N/A time=00:01:39.89 bitrate=N/A speed=17.6x    frame= 2590 fps=418 q=-0.0 size=N/A time=00:01:48.02 bitrate=N/A speed=17.4x    frame= 2772 fps=412 q=-0.0 size=N/A time=00:01:55.61 bitrate=N/A speed=17.2x    frame= 2946 fps=407 q=-0.0 size=N/A time=00:02:02.87 bitrate=N/A speed=  17x    frame= 3123 fps=403 q=-0.0 size=N/A time=00:02:10.25 bitrate=N/A speed=16.8x    frame= 3349 fps=405 q=-0.0 size=N/A time=00:02:19.68 bitrate=N/A speed=16.9x    frame= 3544 fps=403 q=-0.0 size=N/A time=00:02:27.81 bitrate=N/A speed=16.8x    frame= 3812 fps=410 q=-0.0 size=N/A time=00:02:38.99 bitrate=N/A speed=17.1x    frame= 4078 fps=416 q=-0.0 size=N/A time=00:02:50.08 bitrate=N/A speed=17.3x    frame= 4325 fps=418 q=-0.0 size=N/A time=00:03:00.38 bitrate=N/A speed=17.4x    frame= 4558 fps=420 q=-0.0 size=N/A time=00:03:10.10 bitrate=N/A speed=17.5x    frame= 4807 fps=423 q=-0.0 size=N/A time=00:03:20.49 bitrate=N/A speed=17.6x    frame= 5053 fps=425 q=-0.0 size=N/A time=00:03:30.75 bitrate=N/A speed=17.7x    frame= 5307 fps=428 q=-0.0 size=N/A time=00:03:41.34 bitrate=N/A speed=17.9x    frame= 5566 fps=431 q=-0.0 size=N/A time=00:03:52.14 bitrate=N/A speed=  18x    frame= 5829 fps=434 q=-0.0 size=N/A time=00:04:03.11 bitrate=N/A speed=18.1x    frame= 6085 fps=437 q=-0.0 size=N/A time=00:04:13.79 bitrate=N/A speed=18.2x    frame= 6321 fps=437 q=-0.0 size=N/A time=00:04:23.63 bitrate=N/A speed=18.2x    frame= 6541 fps=437 q=-0.0 size=N/A time=00:04:32.81 bitrate=N/A speed=18.2x    frame= 6767 fps=437 q=-0.0 size=N/A time=00:04:42.24 bitrate=N/A speed=18.2x    frame= 7001 fps=438 q=-0.0 size=N/A time=00:04:52.00 bitrate=N/A speed=18.2x    frame= 7229 fps=438 q=-0.0 size=N/A time=00:05:01.50 bitrate=N/A speed=18.3x    frame= 7445 fps=437 q=-0.0 size=N/A time=00:05:10.51 bitrate=N/A speed=18.2x    frame= 7638 fps=435 q=-0.0 size=N/A time=00:05:18.56 bitrate=N/A speed=18.2x    frame= 7859 fps=435 q=-0.0 size=N/A time=00:05:27.78 bitrate=N/A speed=18.1x    frame= 8107 fps=436 q=-0.0 size=N/A time=00:05:38.12 bitrate=N/A speed=18.2x    frame= 8360 fps=438 q=-0.0 size=N/A time=00:05:48.68 bitrate=N/A speed=18.3x    frame= 8612 fps=439 q=-0.0 size=N/A time=00:05:59.19 bitrate=N/A speed=18.3x    frame= 8860 fps=440 q=-0.0 size=N/A time=00:06:09.53 bitrate=N/A speed=18.4x    frame= 9123 fps=442 q=-0.0 size=N/A time=00:06:20.50 bitrate=N/A speed=18.4x    frame= 9366 fps=443 q=-0.0 size=N/A time=00:06:30.64 bitrate=N/A speed=18.5x    frame= 9622 fps=444 q=-0.0 size=N/A time=00:06:41.31 bitrate=N/A speed=18.5x    frame= 9851 fps=444 q=-0.0 size=N/A time=00:06:50.86 bitrate=N/A speed=18.5x    frame=10100 fps=445 q=-0.0 size=N/A time=00:07:01.25 bitrate=N/A speed=18.5x    frame=10357 fps=446 q=-0.0 size=N/A time=00:07:11.97 bitrate=N/A speed=18.6x    frame=10621 fps=447 q=-0.0 size=N/A time=00:07:22.98 bitrate=N/A speed=18.7x    frame=10873 fps=448 q=-0.0 size=N/A time=00:07:33.49 bitrate=N/A speed=18.7x    frame=11127 fps=449 q=-0.0 size=N/A time=00:07:44.08 bitrate=N/A speed=18.7x    frame=11365 fps=449 q=-0.0 size=N/A time=00:07:54.01 bitrate=N/A speed=18.7x    frame=11611 fps=450 q=-0.0 size=N/A time=00:08:04.27 bitrate=N/A speed=18.8x    frame=11852 fps=450 q=-0.0 size=N/A time=00:08:14.32 bitrate=N/A speed=18.8x    frame=12114 fps=451 q=-0.0 size=N/A time=00:08:25.25 bitrate=N/A speed=18.8x    frame=12357 fps=452 q=-0.0 size=N/A time=00:08:35.38 bitrate=N/A speed=18.8x    frame=12605 fps=452 q=-0.0 size=N/A time=00:08:45.73 bitrate=N/A speed=18.9x    frame=12871 fps=453 q=-0.0 size=N/A time=00:08:56.82 bitrate=N/A speed=18.9x    frame=13130 fps=454 q=-0.0 size=N/A time=00:09:07.63 bitrate=N/A speed=18.9x    frame=13399 fps=455 q=-0.0 size=N/A time=00:09:18.84 bitrate=N/A speed=  19x    frame=13635 fps=455 q=-0.0 size=N/A time=00:09:28.69 bitrate=N/A speed=  19x    frame=13874 fps=456 q=-0.0 size=N/A time=00:09:38.66 bitrate=N/A speed=  19x    frame=14131 fps=456 q=-0.0 size=N/A time=00:09:49.38 bitrate=N/A speed=  19x    frame=14376 fps=457 q=-0.0 size=N/A time=00:09:59.59 bitrate=N/A speed=  19x    frame=14622 fps=457 q=-0.0 size=N/A time=00:10:09.85 bitrate=N/A speed=19.1x    frame=14867 fps=457 q=-0.0 size=N/A time=00:10:20.07 bitrate=N/A speed=19.1x    frame=15132 fps=458 q=-0.0 size=N/A time=00:10:31.13 bitrate=N/A speed=19.1x    frame=15376 fps=458 q=-0.0 size=N/A time=00:10:41.30 bitrate=N/A speed=19.1x    frame=15631 fps=459 q=-0.0 size=N/A time=00:10:51.94 bitrate=N/A speed=19.1x    frame=15899 fps=460 q=-0.0 size=N/A time=00:11:03.12 bitrate=N/A speed=19.2x    frame=16109 fps=459 q=-0.0 size=N/A time=00:11:11.87 bitrate=N/A speed=19.1x    frame=16330 fps=459 q=-0.0 size=N/A time=00:11:21.09 bitrate=N/A speed=19.1x    frame=16577 fps=459 q=-0.0 size=N/A time=00:11:31.39 bitrate=N/A speed=19.1x    frame=16806 fps=459 q=-0.0 size=N/A time=00:11:40.95 bitrate=N/A speed=19.1x    frame=17040 fps=459 q=-0.0 size=N/A time=00:11:50.71 bitrate=N/A speed=19.1x    frame=17221 fps=457 q=-0.0 size=N/A time=00:11:58.25 bitrate=N/A speed=19.1x    frame=17409 fps=456 q=-0.0 size=N/A time=00:12:06.10 bitrate=N/A speed=  19x    frame=17665 fps=456 q=-0.0 size=N/A time=00:12:16.77 bitrate=N/A speed=  19x    frame=17895 fps=456 q=-0.0 size=N/A time=00:12:26.37 bitrate=N/A speed=  19x    frame=18164 fps=457 q=-0.0 size=N/A time=00:12:37.59 bitrate=N/A speed=19.1x    frame=18422 fps=458 q=-0.0 size=N/A time=00:12:48.35 bitrate=N/A speed=19.1x    frame=18684 fps=458 q=-0.0 size=N/A time=00:12:59.27 bitrate=N/A speed=19.1x    frame=18933 fps=459 q=-0.0 size=N/A time=00:13:09.66 bitrate=N/A speed=19.1x    frame=19175 fps=459 q=-0.0 size=N/A time=00:13:19.75 bitrate=N/A speed=19.1x    frame=19446 fps=460 q=-0.0 size=N/A time=00:13:31.06 bitrate=N/A speed=19.2x    frame=19716 fps=460 q=-0.0 size=N/A time=00:13:42.32 bitrate=N/A speed=19.2x    frame=19960 fps=460 q=-0.0 size=N/A time=00:13:52.49 bitrate=N/A speed=19.2x    frame=20230 fps=461 q=-0.0 size=N/A time=00:14:03.75 bitrate=N/A speed=19.2x    frame=20487 fps=462 q=-0.0 size=N/A time=00:14:14.47 bitrate=N/A speed=19.3x    frame=20741 fps=462 q=-0.0 size=N/A time=00:14:25.07 bitrate=N/A speed=19.3x    frame=20988 fps=462 q=-0.0 size=N/A time=00:14:35.37 bitrate=N/A speed=19.3x    frame=21248 fps=463 q=-0.0 size=N/A time=00:14:46.21 bitrate=N/A speed=19.3x    frame=21503 fps=463 q=-0.0 size=N/A time=00:14:56.85 bitrate=N/A speed=19.3x    frame=21777 fps=464 q=-0.0 size=N/A time=00:15:08.28 bitrate=N/A speed=19.3x    frame=22035 fps=464 q=-0.0 size=N/A time=00:15:19.04 bitrate=N/A speed=19.4x    frame=22293 fps=464 q=-0.0 size=N/A time=00:15:29.80 bitrate=N/A speed=19.4x    frame=22549 fps=465 q=-0.0 size=N/A time=00:15:40.48 bitrate=N/A speed=19.4x    frame=22811 fps=465 q=-0.0 size=N/A time=00:15:51.40 bitrate=N/A speed=19.4x    frame=23079 fps=466 q=-0.0 size=N/A time=00:16:02.58 bitrate=N/A speed=19.4x    frame=23335 fps=466 q=-0.0 size=N/A time=00:16:13.26 bitrate=N/A speed=19.4x    frame=23592 fps=467 q=-0.0 size=N/A time=00:16:23.98 bitrate=N/A speed=19.5x    frame=23855 fps=467 q=-0.0 size=N/A time=00:16:34.95 bitrate=N/A speed=19.5x    frame=24101 fps=467 q=-0.0 size=N/A time=00:16:45.21 bitrate=N/A speed=19.5x    frame=24369 fps=468 q=-0.0 size=N/A time=00:16:56.39 bitrate=N/A speed=19.5x    frame=24636 fps=468 q=-0.0 size=N/A time=00:17:07.52 bitrate=N/A speed=19.5x    frame=24911 fps=469 q=-0.0 size=N/A time=00:17:18.99 bitrate=N/A speed=19.5x    frame=25188 fps=469 q=-0.0 size=N/A time=00:17:30.54 bitrate=N/A speed=19.6x    frame=25454 fps=470 q=-0.0 size=N/A time=00:17:41.64 bitrate=N/A speed=19.6x    frame=25716 fps=470 q=-0.0 size=N/A time=00:17:52.57 bitrate=N/A speed=19.6x    frame=25986 fps=471 q=-0.0 size=N/A time=00:18:03.83 bitrate=N/A speed=19.6x    frame=26244 fps=471 q=-0.0 size=N/A time=00:18:14.59 bitrate=N/A speed=19.6x    frame=26493 fps=471 q=-0.0 size=N/A time=00:18:24.97 bitrate=N/A speed=19.6x    frame=26758 fps=471 q=-0.0 size=N/A time=00:18:36.03 bitrate=N/A speed=19.7x    frame=27014 fps=472 q=-0.0 size=N/A time=00:18:46.70 bitrate=N/A speed=19.7x    frame=27251 fps=472 q=-0.0 size=N/A time=00:18:56.59 bitrate=N/A speed=19.7x    frame=27510 fps=472 q=-0.0 size=N/A time=00:19:07.39 bitrate=N/A speed=19.7x    frame=27770 fps=472 q=-0.0 size=N/A time=00:19:18.24 bitrate=N/A speed=19.7x    frame=28013 fps=472 q=-0.0 size=N/A time=00:19:28.37 bitrate=N/A speed=19.7x    frame=28263 fps=472 q=-0.0 size=N/A time=00:19:38.80 bitrate=N/A speed=19.7x    frame=28526 fps=472 q=-0.0 size=N/A time=00:19:49.77 bitrate=N/A speed=19.7x    frame=28785 fps=473 q=-0.0 size=N/A time=00:20:00.57 bitrate=N/A speed=19.7x    frame=29030 fps=473 q=-0.0 size=N/A time=00:20:10.79 bitrate=N/A speed=19.7x    frame=29285 fps=473 q=-0.0 size=N/A time=00:20:21.42 bitrate=N/A speed=19.7x    frame=29535 fps=473 q=-0.0 size=N/A time=00:20:31.85 bitrate=N/A speed=19.7x    frame=29785 fps=473 q=-0.0 size=N/A time=00:20:42.28 bitrate=N/A speed=19.7x    frame=30031 fps=473 q=-0.0 size=N/A time=00:20:52.54 bitrate=N/A speed=19.7x    frame=30270 fps=473 q=-0.0 size=N/A time=00:21:02.51 bitrate=N/A speed=19.7x    frame=30534 fps=473 q=-0.0 size=N/A time=00:21:13.52 bitrate=N/A speed=19.7x    frame=30779 fps=473 q=-0.0 size=N/A time=00:21:23.74 bitrate=N/A speed=19.7x    frame=31027 fps=473 q=-0.0 size=N/A time=00:21:34.08 bitrate=N/A speed=19.7x    frame=31262 fps=473 q=-0.0 size=N/A time=00:21:43.88 bitrate=N/A speed=19.7x    frame=31511 fps=473 q=-0.0 size=N/A time=00:21:54.27 bitrate=N/A speed=19.7x    frame=31744 fps=473 q=-0.0 size=N/A time=00:22:03.98 bitrate=N/A speed=19.7x    frame=31990 fps=473 q=-0.0 size=N/A time=00:22:14.24 bitrate=N/A speed=19.7x    frame=32219 fps=473 q=-0.0 size=N/A time=00:22:23.80 bitrate=N/A speed=19.7x    frame=32480 fps=473 q=-0.0 size=N/A time=00:22:34.68 bitrate=N/A speed=19.7x    frame=32726 fps=473 q=-0.0 size=N/A time=00:22:44.94 bitrate=N/A speed=19.7x    frame=32952 fps=473 q=-0.0 size=N/A time=00:22:54.37 bitrate=N/A speed=19.7x    frame=33184 fps=473 q=-0.0 size=N/A time=00:23:04.04 bitrate=N/A speed=19.7x    frame=33432 fps=473 q=-0.0 size=N/A time=00:23:14.39 bitrate=N/A speed=19.7x    frame=33661 fps=473 q=-0.0 size=N/A time=00:23:23.94 bitrate=N/A speed=19.7x    frame=33897 fps=473 q=-0.0 size=N/A time=00:23:33.78 bitrate=N/A speed=19.7x    frame=34124 fps=472 q=-0.0 size=N/A time=00:23:43.25 bitrate=N/A speed=19.7x    [Parsed_ssim_10 @ 00000267d00cc140] SSIM Y:0.994838 (22.872025) U:0.994022 (22.234685) V:0.994567 (22.649329) All:0.994657 (22.722144)
[out#0/null @ 00000267cfb64680] video:14697KiB audio:267500KiB subtitle:0KiB other streams:0KiB global headers:0KiB muxing overhead: unknown
frame=34203 fps=472 q=-0.0 Lsize=N/A time=00:23:46.55 bitrate=N/A speed=19.7x    
